<?xml version="1.0" encoding="UTF-8" standalone="no"?>
<!-- Created with Inkscape (http://www.inkscape.org/) -->

<svg
   xmlns:dc="http://purl.org/dc/elements/1.1/"
   xmlns:cc="http://creativecommons.org/ns#"
   xmlns:rdf="http://www.w3.org/1999/02/22-rdf-syntax-ns#"
   xmlns:svg="http://www.w3.org/2000/svg"
   xmlns="http://www.w3.org/2000/svg"
   xmlns:sodipodi="http://sodipodi.sourceforge.net/DTD/sodipodi-0.dtd"
   xmlns:inkscape="http://www.inkscape.org/namespaces/inkscape"
   width="36.508026mm"
   height="36.903931mm"
   viewBox="0 0 36.508026 36.903931"
   version="1.1"
   id="svg843"
   inkscape:version="0.92.2 (5c3e80d, 2017-08-06)"
   sodipodi:docname="icon_white.svg">
  <defs
     id="defs837" />
  <sodipodi:namedview
     id="base"
     pagecolor="#ffffff"
     bordercolor="#666666"
     borderopacity="1.0"
     inkscape:pageopacity="0.0"
     inkscape:pageshadow="2"
     inkscape:zoom="0.35"
     inkscape:cx="-746.72276"
     inkscape:cy="-450.26029"
     inkscape:document-units="mm"
     inkscape:current-layer="layer1"
     showgrid="false"
     showborder="false"
     inkscape:window-width="1920"
     inkscape:window-height="1028"
     inkscape:window-x="-8"
     inkscape:window-y="-8"
     inkscape:window-maximized="1"
     fit-margin-top="0"
     fit-margin-left="0"
     fit-margin-right="0"
     fit-margin-bottom="0" />
  <metadata
     id="metadata840">
    <rdf:RDF>
      <cc:Work
         rdf:about="">
        <dc:format>image/svg+xml</dc:format>
        <dc:type
           rdf:resource="http://purl.org/dc/dcmitype/StillImage" />
        <dc:title></dc:title>
      </cc:Work>
    </rdf:RDF>
  </metadata>
  <g
     inkscape:label="Ebene 1"
     inkscape:groupmode="layer"
     id="layer1"
     transform="translate(-138.22813,7.2019659)">
    <path
       style="fill:#fffffd;fill-opacity:1;stroke-width:0.21166666"
       d="m 153.25198,29.405784 c -6.96982,-1.297591 -12.67394,-6.53446 -14.52852,-13.33845 -0.65564,-2.40538 -0.66134,-7.1007199 -0.0115,-9.4782799 1.72187,-6.29986998 6.81671,-11.3937 13.10509,-13.10249 1.27576,-0.34667 2.29018,-0.45072 4.50411,-0.46199 3.08088,-0.0157 4.68529,0.28045 7.03896,1.29923 l 1.21812,0.52726 -0.84771,0.9196601 c -0.46624,0.5057999 -0.84916,0.9932101 -0.85094,1.08313 -0.0126,0.6355498 -0.37952,0.6604299 -2.01511,0.1366499 -3.67829,-1.1779599 -7.37413,-0.8730498 -11.09468,0.9153001 -1.68579,0.8103 -2.28953,1.25058992 -3.83747,2.79853002 -1.54944,1.54943988 -1.98721,2.15004988 -2.79703,3.83746988 -1.13759,2.37038 -1.63081,4.41575 -1.63081,6.7630299 0,6.57426 4.14981,12.222051 10.54806,14.35563 1.40776,0.46944 1.98738,0.541139 4.37444,0.541139 2.38707,0 2.96669,-0.0717 4.37444,-0.541139 6.45665,-2.15306 10.57642,-7.82351 10.53709,-14.50325 -0.01,-1.6718499 -0.57017,-4.5489499 -1.13073,-5.8058499 -0.11297,-0.25331 -0.0174,-0.37847 0.3615,-0.47357 0.28328,-0.0711 0.86594,-0.48767 1.29481,-0.9257 0.75238,-0.76847 0.79046,-0.78201 1.08493,-0.38576 0.89673,1.20674 1.78713,5.11714 1.78713,7.8486699 0,11.233401 -10.50942,20.033961 -21.48417,17.99078 z m 0.58678,-6.975089 c -2.01666,-0.488661 -3.86539,-1.562531 -5.45873,-3.170822 -2.36114,-2.383279 -3.27721,-4.577359 -3.27721,-7.849209 0,-3.3144699 1.09045,-5.9107599 3.46905,-8.2596099 2.44028,-2.40975998 5.08252,-3.41228978 8.49011,-3.22136988 1.79311,0.1004599 4.33917,0.79601 4.33917,1.18538988 0,0.0833 -0.45519,0.5998501 -1.01153,1.14783 l -1.01154,0.99632 -1.70782,-0.24892 c -1.46537,-0.2135798 -1.91264,-0.19837 -3.15058,0.10712 -4.6424,1.14563 -7.34118,5.66477 -6.1529,10.3030899 0.87343,3.40935 3.20217,5.53002 6.75127,6.14807 5.27376,0.91839 10.01984,-3.41826 9.60469,-8.77612 -0.0639,-0.8241599 -0.18076,-1.7091999 -0.25979,-1.9667599 -0.1148,-0.37417 0.0734,-0.69323 0.93615,-1.5875 1.24153,-1.28678 1.25756,-1.27963 1.92968,0.86101 0.58102,1.8505 0.57171,4.5786299 -0.0222,6.5170699 -1.75199,5.717789 -7.75229,9.199352 -13.46778,7.814411 z m 0.46686,-6.441911 c -2.37842,-1.08044 -3.58719,-3.84763 -2.76371,-6.3268799 0.60996,-1.83642 2.61096,-3.42128 4.33369,-3.43243 l 0.71862,-0.005 -1.0989,1.16192 c -1.26725,1.33994 -1.7143,2.26356 -1.71384,3.5408599 6.6e-4,1.827911 1.23518,3.130541 2.963,3.126491 1.10137,-0.003 2.73957,-0.863351 3.76145,-1.97637 0.49716,-0.54151 0.9496,-0.984571 1.00541,-0.984571 0.18215,0 0.10687,0.885371 -0.14745,1.734221 -0.32561,1.086799 -1.73514,2.67066 -2.81205,3.159839 -1.12596,0.51145 -3.12215,0.51219 -4.24622,10e-4 z m 1.45689,-4.57859 c -0.31376,-0.81765 0.30841,-1.6218399 4.59705,-5.9419899 l 4.42826,-4.46079 V -0.63649578 -2.2804159 l 2.41335,-2.46077 2.41335,-2.46078 0.15234,2.3507 0.15237,2.3507 2.19679,0.1497301 c 1.20824,0.0824 2.1968,0.2175 2.1968,0.30031 0,0.0828 -1.03352,1.16903002 -2.29671,2.41379992 l -2.2967,2.26322018 -1.67205,-0.006 -1.67204,-0.006 -4.23334,4.3096808 c -2.32833,2.37033 -4.44138,4.4209699 -4.69567,4.5569799 -0.64635,0.34573 -1.53838,0.30829 -1.6838,-0.0707 z"
       id="path826"
       inkscape:connector-curvature="0"
       inkscape:export-filename="C:\Users\aweber10\Documents\OKR\Icon_white_30_ink.png"
       inkscape:export-xdpi="20.648207"
       inkscape:export-ydpi="20.648207" />
  </g>
</svg>
